<mxfile host="app.diagrams.net" modified="2022-03-07T03:20:33.810Z" agent="5.0 (Macintosh; Intel Mac OS X 10_15_7) AppleWebKit/537.36 (KHTML, like Gecko) Chrome/98.0.4758.102 Safari/537.36 Edg/98.0.1108.62" etag="Fh65kWJf_LicbUeg4tBp" version="16.6.4" type="github">
  <diagram id="W9Uq050zK1YNTEr2LwdB" name="Page-1">
    <mxGraphModel dx="1212" dy="1129" grid="1" gridSize="10" guides="1" tooltips="1" connect="1" arrows="1" fold="1" page="1" pageScale="1" pageWidth="1654" pageHeight="1169" math="0" shadow="0">
      <root>
        <mxCell id="0" />
        <mxCell id="1" parent="0" />
        <mxCell id="wnT9NSqTtrn2qW_VYwv1-1" value="" style="triangle;whiteSpace=wrap;html=1;" vertex="1" parent="1">
          <mxGeometry x="290" y="360" width="60" height="80" as="geometry" />
        </mxCell>
        <mxCell id="wnT9NSqTtrn2qW_VYwv1-2" value="" style="shape=xor;whiteSpace=wrap;html=1;" vertex="1" parent="1">
          <mxGeometry x="660" y="270" width="60" height="80" as="geometry" />
        </mxCell>
      </root>
    </mxGraphModel>
  </diagram>
</mxfile>
